<svg width="48" height="48" viewBox="0 0 48 48" fill="none" xmlns="http://www.w3.org/2000/svg">
<rect width="48" height="48" rx="6" fill="#87EBBE" fill-opacity="0.2"/>
<path d="M25.8591 31.2017C25.9466 32.8779 26.4812 34.5001 27.4074 35.8999L27.7194 36.4017M20.2799 36.4017L20.5919 35.8999C21.5181 34.5001 22.0527 32.8779 22.1402 31.2017M18.1505 36.4H29.8505M11.0039 27.3017H37.0039M35.7039 13C36.0487 13 36.3793 13.137 36.6231 13.3808C36.8669 13.6246 37.0039 13.9552 37.0039 14.3V29.9C37.0039 30.2448 36.8669 30.5754 36.6231 30.8192C36.3793 31.063 36.0487 31.2 35.7039 31.2H12.3039C11.9591 31.2 11.6285 31.063 11.3847 30.8192C11.1409 30.5754 11.0039 30.2448 11.0039 29.9V14.3C11.0039 13.9552 11.1409 13.6246 11.3847 13.3808C11.6285 13.137 11.9591 13 12.3039 13H35.7039Z" stroke="#00AB7F" stroke-width="1.5" stroke-linecap="round" stroke-linejoin="round"/>
</svg>
