<svg width="60" height="60" viewBox="0 0 60 60" fill="none" xmlns="http://www.w3.org/2000/svg">
<path d="M38.0024 43.5472L53.5449 38.5822L53.6524 38.5522C54.5267 38.3607 55.4409 38.4937 56.2242 38.9267C57.0074 39.3597 57.6064 40.0629 57.9092 40.9052C58.2119 41.7472 58.1979 42.6709 57.8697 43.5034C57.5412 44.3362 56.9212 45.0207 56.1249 45.4297C25.7824 61.1397 33.5224 60.4297 1.875 49.8872" fill="#00AB7F"/>
<path d="M1.875 30.6386H7.375C13.7678 30.5733 19.9693 32.8176 24.84 36.9586L24.9425 37.0486H35.1925C36.215 37.0486 37.1955 37.4546 37.9185 38.1776C38.6413 38.9006 39.0475 39.8811 39.0475 40.9036C39.0483 41.9228 38.645 42.9011 37.9263 43.6241C37.2077 44.3468 36.2318 44.7558 35.2125 44.7611L1.875 49.8914" fill="#00AB7F"/>
<path d="M1.875 30.6386H7.375C13.7678 30.5733 19.9693 32.8176 24.84 36.9586L24.9425 37.0486H35.1925C36.215 37.0486 37.1955 37.4546 37.9185 38.1776C38.6413 38.9006 39.0475 39.8811 39.0475 40.9036C39.0482 41.9228 38.645 42.9011 37.9262 43.6241C37.2077 44.3468 36.2317 44.7558 35.2125 44.7611L19.6275 44.8386" stroke="white" stroke-width="2" stroke-linecap="round" stroke-linejoin="round"/>
<path d="M41.8897 4.83496C40.5952 3.96998 39.0732 3.5083 37.5163 3.5083C35.4286 3.5083 33.4263 4.33766 31.95 5.81393C30.4738 7.2902 29.6444 9.29245 29.6444 11.3802C29.6444 12.9371 30.1061 14.4591 30.9711 15.7536C31.836 17.0481 33.0655 18.0571 34.5039 18.6529C35.9423 19.2487 37.525 19.4046 39.052 19.1009C40.5791 18.7971 41.9817 18.0474 43.0826 16.9465C44.1835 15.8456 44.9332 14.443 45.237 12.916C45.5407 11.3889 45.3848 9.80617 44.789 8.36776C44.1932 6.92936 43.1842 5.69994 41.8897 4.83496Z" fill="#9BEEC8"/>
<path d="M49.849 34.996C50.0762 34.9886 50.2921 34.8947 50.4525 34.7336H50.4263C50.573 34.5679 50.6485 34.351 50.6362 34.1301C50.7162 30.6504 49.4107 27.2816 47.0068 24.7645C44.603 22.2475 41.2977 20.7885 37.8181 20.7084C34.3385 20.6284 30.9696 21.9339 28.4525 24.3378C25.9355 26.7416 24.4765 30.0469 24.3965 33.5265C24.3775 33.7115 24.3982 33.8985 24.457 34.0749C24.5158 34.2513 24.6114 34.4132 24.7376 34.5499C24.8568 34.6909 25.0056 34.8039 25.1734 34.881C25.3411 34.9581 25.5238 34.9973 25.7084 34.996H49.849Z" fill="#9BEEC8"/>
</svg>
