<svg width="20" height="20" viewBox="0 0 20 20" fill="none" xmlns="http://www.w3.org/2000/svg">
<path fill-rule="evenodd" clip-rule="evenodd" d="M10.0005 20C15.5228 20 20 15.5226 20 10H19.9987C19.9987 4.47615 15.5215 0 9.99922 0H9.97512H9.9358C9.11012 0.0722983 8.40239 2.39346 8.07136 5.72425C8.05741 5.86631 8.04345 6.01091 8.03077 6.15677C7.63759 3.20142 6.80176 1.16312 5.83529 1.16312C4.48833 1.16312 3.39629 5.1205 3.39629 10.0013C3.39629 14.882 4.48959 18.8369 5.83656 18.8369C6.80303 18.8369 7.63886 16.7998 8.03204 13.8445C8.04472 13.9904 8.05867 14.135 8.07263 14.277C8.40366 17.6078 9.11139 19.9277 9.93707 20H9.97639H10.0005ZM1.29623 13.7432C2.01411 13.7432 2.59373 12.0664 2.59373 10.0002C2.59373 7.93271 2.01284 6.25716 1.29623 6.25716C0.579627 6.25716 0 7.93397 0 10.0002C0 12.0664 0.578359 13.7432 1.29623 13.7432Z" fill="#00C781"/>
</svg>
